<svg xmlns="http://www.w3.org/2000/svg" xmlns:xlink="http://www.w3.org/1999/xlink" width="153.096" height="44.012" viewBox="0 0 153.096 44.012">
  <defs>
    <clipPath id="clip-path">
      <rect id="사각형_123" data-name="사각형 123" width="153.096" height="44.012" fill="none"/>
    </clipPath>
  </defs>
  <g id="logo" transform="translate(0 0)">
    <g id="그룹_5249" data-name="그룹 5249" transform="translate(0 0)" clip-path="url(#clip-path)">
      <path id="패스_3219" data-name="패스 3219" d="M47.794,9.71v.924l1.414.082c.842.054,1.169.245,1.169.678A2.627,2.627,0,0,1,50.1,12.4L45.973,22.757,41.46,12.346a2.308,2.308,0,0,1-.27-.952c0-.433.351-.624,1.222-.678l1.414-.082V9.71c-1.2.026-2.718.053-4.241.053-1.494,0-2.963-.027-4.077-.053v.924l.463.026c1.169.056,1.276.518,1.849,1.768l7.012,15.112h.436l6.386-15.059c.545-1.276.707-1.74,1.876-1.821l.462-.026V9.71c-.734.026-1.684.053-2.718.053-1.06,0-2.256-.027-3.479-.053" transform="translate(12.864 3.517)" fill="#fff"/>
      <path id="패스_3220" data-name="패스 3220" d="M49.763,9.71v.924l1.113.082c1.2.082,1.306.271,1.306,2.31V23.953c0,2.038-.109,2.229-1.306,2.31l-1.113.082v.924c1.142-.027,2.636-.053,4.132-.053,1.467,0,2.936.026,4.077.053v-.924l-1.088-.082c-1.2-.082-1.3-.272-1.3-2.31V13.026c0-2.039.108-2.229,1.3-2.31l1.088-.082V9.71c-1.142.026-2.61.053-4.106.053-1.467,0-2.962-.027-4.1-.053" transform="translate(18.028 3.517)" fill="#fff"/>
      <path id="패스_3221" data-name="패스 3221" d="M67,25.3c-3.587,0-6.469-2.718-6.469-7.284,0-4.267,2.665-7.04,5.871-7.04a4.679,4.679,0,0,1,3.723,1.6,9.56,9.56,0,0,1,1.632,3.151l.678-.242-.762-4.677a10.957,10.957,0,0,0-5.326-1.3,9.431,9.431,0,0,0-9.46,9.46,8.378,8.378,0,0,0,8.754,8.642,8.123,8.123,0,0,0,6.223-2.662l1.2-2.8-.571-.327C71.242,24.051,69.666,25.3,67,25.3" transform="translate(20.61 3.445)" fill="#fff"/>
      <path id="패스_3222" data-name="패스 3222" d="M81.788,9.9H75.073a33.138,33.138,0,0,1-5.163-.272c-.11,2.012-.272,4.269-.463,5.82l.707.135c1.086-3.017,1.74-4.566,4.214-4.566h2.282s.056,1.74.056,4.783v8.182c0,2.039-.082,2.256-1.306,2.312l-1.358.082V27.3c1.142-.026,2.907-.053,4.377-.053,1.494,0,3.234.027,4.376.053v-.922l-1.358-.082c-1.225-.056-1.306-.272-1.306-2.312V15.8c0-3.043.056-4.783.056-4.783h2.285c2.471,0,3.151,1.549,4.239,4.566l.707-.135c-.191-1.55-.381-3.808-.462-5.82a33.2,33.2,0,0,1-5.166.272" transform="translate(25.159 3.488)" fill="#fff"/>
      <path id="패스_3223" data-name="패스 3223" d="M92.911,9.51a9.263,9.263,0,0,0-9.351,9.105,9.172,9.172,0,0,0,9.351,9,9.285,9.285,0,0,0,9.378-9.105,9.193,9.193,0,0,0-9.378-9m0,16.77c-3.125,0-5.41-3.289-5.41-7.8s2.285-7.638,5.41-7.638c3.154,0,5.435,3.289,5.435,7.8s-2.282,7.638-5.435,7.638" transform="translate(30.272 3.445)" fill="#fff"/>
      <path id="패스_3224" data-name="패스 3224" d="M116.362,26.263a2.188,2.188,0,0,1-1.687-.978l-7.04-8.4,5.166-4.539c1.441-1.225,1.956-1.658,3.072-1.687l.706-.027V9.71c-1.116.026-2.285.026-3.452.026s-2.312,0-3.453-.026v.922l1.306.082c.489.027.68.165.68.407,0,.3-.326.68-.789,1.116l-5.41,5.028a1.829,1.829,0,0,1-1.251.49v-4.73c0-2.039.109-2.229,1.3-2.312l1.09-.082V9.71c-1.143.026-2.61.053-4.106.053-1.467,0-2.962-.027-4.1-.053v.922l1.113.082c1.2.083,1.306.272,1.306,2.312V23.953c0,2.038-.109,2.229-1.306,2.31l-1.113.082v.924c1.142-.027,2.636-.053,4.129-.053,1.47,0,2.937.026,4.08.053v-.924l-1.09-.082c-1.195-.082-1.3-.272-1.3-2.31V18.408c.572.108,1.034.515,1.793,1.493l4.406,5.544a.867.867,0,0,1,.217.519c0,.189-.135.3-.435.324l-1.251.056v.924c1.523-.027,2.936-.053,4.323-.053,1.413,0,2.8.026,4.186.053v-.924Z" transform="translate(35.646 3.517)" fill="#fff"/>
      <path id="패스_3225" data-name="패스 3225" d="M1.155,0H0V.608H1.155V43.4H0v.608H9.605V43.4H8.45V.608H9.605V0H1.155Z" transform="translate(0 0)" fill="#fff"/>
      <path id="패스_3226" data-name="패스 3226" d="M10.948,16.316H12.1v21.4H10.948v.608h9.605v-.608H19.4v-21.4h1.155v-.608H10.948Z" transform="translate(3.966 5.69)" fill="#fff"/>
      <path id="패스_3227" data-name="패스 3227" d="M23.051,0H21.9V.608h1.155V43.4H21.9v.608H31.5V43.4H30.346V.608H31.5V0h-8.45Z" transform="translate(7.932 0)" fill="#fff"/>
      <path id="패스_3228" data-name="패스 3228" d="M15.8,4.1a5.1,5.1,0,0,1-5.1,5.1,5.142,5.142,0,0,1,5.1,5.141,5.113,5.113,0,0,1,5.1-5.141,5.076,5.076,0,0,1-5.1-5.1" transform="translate(3.878 1.483)" fill="#fff"/>
    </g>
  </g>
</svg>
